<svg width="27" height="37" viewBox="0 0 27 37" fill="none" xmlns="http://www.w3.org/2000/svg">
<path d="M24.0545 2.24672C19.9934 -1.8144 11.9957 -0.23327 5.87699 5.88548C3.05586 8.71743 1.08487 12.0746 0.326792 15.3614C0.324005 15.3907 0.318568 15.4197 0.310548 15.4481C0.0929227 16.2831 -0.0108977 17.1437 0.00190273 18.0066V18.0742C-0.0157882 18.9404 0.08996 19.8046 0.315962 20.6409C1.05779 23.9547 3.02337 27.3552 5.8824 30.2034C9.71609 34.0371 14.2754 36.1002 18.1632 36.1002C19.2705 36.1088 20.3705 35.9209 21.4121 35.5452C22.4079 35.1733 23.3125 34.5926 24.0654 33.8422C27.5688 30.3388 26.854 23.7436 22.4978 18.0418C26.8432 12.3481 27.5661 5.75011 24.0545 2.24672ZM8.52754 8.53062C12.9975 4.06068 18.8996 2.3875 21.404 4.89186C23.3993 6.8791 22.6927 11.2516 19.9312 15.1963C16.2058 11.6766 11.8577 9.78144 8.14309 9.78144C7.88092 9.77825 7.61877 9.79 7.35794 9.81664C7.72615 9.37263 8.12414 8.94756 8.52754 8.53062ZM4.87524 21.4071C4.43721 20.9597 4.12041 20.4081 3.95472 19.8043C3.81705 19.2376 3.74349 18.6573 3.73542 18.0742V18.0309C3.74336 17.4689 3.80868 16.9092 3.93036 16.3605C3.92801 16.3393 3.93381 16.318 3.9466 16.3009C3.96284 16.2846 3.9466 16.2846 3.9466 16.2765C4.12005 15.6766 4.43905 15.1288 4.87524 14.6819C7.33086 12.2452 13.0327 13.7776 17.4728 18.0499C13.0435 22.3195 7.34169 23.86 4.87524 21.4071ZM21.3904 31.1998C18.8942 33.7041 12.9975 32.0445 8.514 27.5691C8.10518 27.1522 7.70178 26.7244 7.3444 26.2804C11.2241 26.5701 15.9269 24.6803 19.9176 20.8954C22.6819 24.8401 23.3885 29.2125 21.3932 31.1998H21.3904Z" fill="#181E54"/>
<path d="M21.4039 31.1971C18.9077 33.7041 13.011 32.0418 8.52749 27.5664C8.11719 27.1576 7.72773 26.7284 7.3606 26.2804C11.2376 26.5701 15.9431 24.6776 19.9311 20.8954C22.6927 24.8401 23.3993 29.2125 21.4039 31.1971Z" fill="white"/>
<path d="M17.4837 18.0472C13.0436 22.3168 7.34178 23.86 4.88887 21.4044C4.4485 20.9598 4.13129 20.4084 3.96835 19.8043C3.82963 19.2378 3.75515 18.6575 3.74634 18.0743V18.0309C3.75428 17.4689 3.81959 16.9092 3.94127 16.3605C3.93892 16.3393 3.94473 16.318 3.95752 16.3009C3.97376 16.2847 3.95752 16.282 3.95752 16.2738C4.12421 15.6742 4.43995 15.1266 4.87533 14.6819C7.34178 12.2344 13.0436 13.7776 17.4837 18.0472Z" fill="#5D8FE8"/>
<path d="M19.9311 15.2017C16.2057 11.6821 11.8603 9.78687 8.14304 9.78687C7.8818 9.78084 7.62044 9.79169 7.3606 9.81936C7.7261 9.37805 8.11867 8.95028 8.52749 8.54146C12.9974 4.0607 18.8996 2.39564 21.4039 4.9027C23.3993 6.88182 22.6927 11.2543 19.9311 15.2017Z" fill="#00D161"/>
</svg>
