<svg width="80" height="80" viewBox="0 0 80 80" fill="none" xmlns="http://www.w3.org/2000/svg">
<rect width="80" height="80" fill="#F5FEF9"/>
<g clip-path="url(#clip0_477_4)">
<path d="M31 31H49C49.2652 31 49.5196 31.1054 49.7071 31.2929C49.8946 31.4804 50 31.7348 50 32V48C50 48.2652 49.8946 48.5196 49.7071 48.7071C49.5196 48.8946 49.2652 49 49 49H31C30.7348 49 30.4804 48.8946 30.2929 48.7071C30.1054 48.5196 30 48.2652 30 48V32C30 31.7348 30.1054 31.4804 30.2929 31.2929C30.4804 31.1054 30.7348 31 31 31ZM44.464 43.536L48 40L44.464 36.464L43.05 37.88L45.172 40L43.05 42.121L44.464 43.536ZM34.828 40L36.95 37.879L35.536 36.464L32 40L35.536 43.536L36.95 42.12L34.828 40ZM39.244 45L42.884 35H40.756L37.116 45H39.244Z" fill="#00D161"/>
</g>
<defs>
<clipPath id="clip0_477_4">
<rect width="24" height="24" fill="white" transform="translate(28 28)"/>
</clipPath>
</defs>
</svg>
