<svg width="40" height="40" viewBox="0 0 40 40" fill="none" xmlns="http://www.w3.org/2000/svg">
<g clip-path="url(#clip0_247_28)">
<path d="M36.4921 27.336C35.6217 26.7925 34.5122 26.7366 33.59 27.1869L27.0517 30.3603V30.0154C27.0517 28.3578 25.782 27.0999 24.1244 27.0999H17.792C16.5 27.0999 15.1789 26.8608 13.9447 26.4789L9.81945 25.1692V23.5058C9.81945 22.9741 9.46867 22.5752 8.93695 22.5752H3.16087C2.62915 22.5752 2.11798 22.9741 2.11798 23.5058V38.8127C2.11798 39.3444 2.62923 39.8075 3.16087 39.8075H8.93703C9.46875 39.8075 9.81953 39.3443 9.81953 38.8127V37.2715L10.5083 37.8086C12.253 39.2118 14.487 40.0001 16.726 40.0001H22.2901C24.281 40.0001 26.2025 39.3914 27.847 38.2691L36.5926 32.2922C37.4 31.7411 37.8821 30.8246 37.8821 29.8471C37.8821 28.8207 37.3624 27.8796 36.4921 27.336ZM7.89414 37.8821H4.04337V24.5007H7.89414V37.8821ZM35.5071 30.694L26.7615 36.6787C25.4383 37.5819 23.8921 38.0746 22.2901 38.0746H16.726C14.9244 38.0746 13.1189 37.4374 11.715 36.3082L9.81953 34.8007V27.1846L13.3755 28.3181C14.7943 28.7573 16.3068 29.0252 17.7921 29.0252H24.1245C24.7203 29.0252 25.1264 29.4194 25.1264 30.0154V31.1793C23.9711 31.495 21.2678 32.0539 18.5313 31.6136C18.0069 31.5293 17.532 31.8861 17.4476 32.4111C17.3633 32.9361 17.7301 33.43 18.255 33.5145C19.092 33.6492 19.9237 33.7032 20.7122 33.7032C23.8308 33.7032 26.3465 32.8572 26.4775 32.8124C26.5132 32.8002 26.5487 32.7855 26.582 32.7696C26.5843 32.7685 26.5874 32.7678 26.5897 32.7668L34.4739 28.9171C34.8005 28.7578 35.1642 28.7767 35.4721 28.969C35.78 29.1614 35.9567 29.48 35.9567 29.8429C35.9565 30.1838 35.7885 30.5019 35.5071 30.694Z" fill="black"/>
<path d="M16.0289 16.9435C18.5503 16.9435 20.6017 14.8921 20.6017 12.3707C20.6017 9.84925 18.5503 7.79785 16.0289 7.79785C13.5075 7.79785 11.4561 9.84925 11.4561 12.3707C11.4561 14.8921 13.5075 16.9435 16.0289 16.9435ZM16.0289 9.72324C17.4887 9.72324 18.6763 10.9108 18.6763 12.3707C18.6763 13.8305 17.4887 15.0181 16.0289 15.0181C14.569 15.0181 13.3814 13.8305 13.3814 12.3707C13.3814 10.9108 14.569 9.72324 16.0289 9.72324Z" fill="black"/>
<path d="M23.8267 9.14561C26.3481 9.14561 28.3995 7.09421 28.3995 4.5728C28.3995 2.0514 26.3481 0 23.8267 0C21.3053 0 19.2539 2.0514 19.2539 4.5728C19.2539 7.09421 21.3053 9.14561 23.8267 9.14561ZM23.8267 1.92539C25.2865 1.92539 26.4741 3.11296 26.4741 4.5728C26.4741 6.03264 25.2865 7.22022 23.8267 7.22022C22.3669 7.22022 21.1793 6.03264 21.1793 4.5728C21.1793 3.11296 22.3669 1.92539 23.8267 1.92539Z" fill="black"/>
<path d="M19.3502 20.2647C19.3502 17.7433 21.4016 15.6919 23.923 15.6919C26.4444 15.6919 28.4958 17.7433 28.4958 20.2647C28.4958 22.7861 26.4444 24.8375 23.923 24.8375C21.4016 24.8375 19.3502 22.7861 19.3502 20.2647Z" fill="#000F30"/>
</g>
<defs>
<clipPath id="clip0_247_28">
<rect width="40" height="40" fill="white"/>
</clipPath>
</defs>
</svg>
