<svg width="40" height="40" viewBox="0 0 40 40" fill="none" xmlns="http://www.w3.org/2000/svg">
<g clip-path="url(#clip0_259_267)">
<path d="M20 0C8.97195 0 0 8.97195 0 20C0 31.028 8.97195 40 20 40C31.028 40 40 31.028 40 20C40 8.97195 31.028 0 20 0ZM20 38.4375C9.83352 38.4375 1.5625 30.1665 1.5625 20C1.5625 9.83352 9.83352 1.5625 20 1.5625C30.1665 1.5625 38.4375 9.83352 38.4375 20C38.4375 30.1665 30.1665 38.4375 20 38.4375Z" fill="#000F30"/>
<path d="M20 4.375C15.2208 4.375 10.7677 6.51992 7.78242 10.2597C7.51328 10.597 7.56844 11.0885 7.90563 11.3577C8.24281 11.6268 8.73438 11.5716 9.00359 11.2345C11.6906 7.8682 15.6987 5.9375 20 5.9375C27.7541 5.9375 34.0625 12.2459 34.0625 20C34.0625 27.7541 27.7541 34.0625 20 34.0625C12.2459 34.0625 5.9375 27.7541 5.9375 20C5.9375 19.0677 6.0293 18.1354 6.21039 17.2291C6.29492 16.8059 6.02047 16.3945 5.59734 16.3099C5.17469 16.2253 4.76273 16.4998 4.6782 16.923C4.47695 17.9298 4.375 18.9651 4.375 20C4.375 28.6156 11.3844 35.625 20 35.625C28.6156 35.625 35.625 28.6156 35.625 20C35.625 11.3844 28.6156 4.375 20 4.375Z" fill="#000F30"/>
<path d="M11.8896 10.144C11.4582 10.144 11.1084 10.4938 11.1084 10.9253V16.3941C11.1084 17.6694 11.7228 18.8036 12.6709 19.5169V28.2934C12.6709 29.5858 13.7223 30.6372 15.0146 30.6372C16.307 30.6372 17.3584 29.5858 17.3584 28.2934V19.517C18.3065 18.8037 18.9209 17.6694 18.9209 16.3941V10.9253C18.9209 10.4938 18.5711 10.144 18.1396 10.144C17.7082 10.144 17.3584 10.4938 17.3584 10.9253V14.8317H15.7959V10.9253C15.7959 10.4938 15.4461 10.144 15.0146 10.144C14.5832 10.144 14.2334 10.4938 14.2334 10.9253V14.8317H12.6709V10.9253C12.6709 10.4938 12.3211 10.144 11.8896 10.144ZM15.7959 28.2935C15.7959 28.7243 15.4454 29.0747 15.0146 29.0747C14.5839 29.0747 14.2334 28.7243 14.2334 28.2935V20.2218C14.4859 20.2733 14.7471 20.3004 15.0146 20.3004C15.2821 20.3004 15.5434 20.2733 15.7959 20.2218V28.2935ZM15.0146 18.7379C13.7223 18.7379 12.671 17.6865 12.6709 16.3942L17.3584 16.3941C17.3584 17.6865 16.307 18.7379 15.0146 18.7379Z" fill="#000F30"/>
<path d="M24.917 30.6373C26.2093 30.6373 27.2607 29.5859 27.2607 28.2936V18.9317C28.4714 18.2373 29.2139 16.9758 29.2139 15.4069C29.2139 14.1756 28.7864 12.7377 28.0704 11.5606C27.2085 10.1435 26.0886 9.36304 24.917 9.36304C23.7454 9.36304 22.6255 10.1435 21.7636 11.5606C21.0475 12.7378 20.6201 14.1757 20.6201 15.4069C20.6201 16.9758 21.3626 18.2374 22.5732 18.9317V28.2937C22.5732 29.586 23.6246 30.6373 24.917 30.6373ZM25.6982 28.2937C25.6982 28.7244 25.3478 29.0749 24.917 29.0749C24.4862 29.0749 24.1357 28.7244 24.1357 28.2937V19.4616C24.3869 19.4989 24.6473 19.5193 24.917 19.5193C25.1867 19.5193 25.4471 19.499 25.6982 19.4616V28.2937ZM24.917 10.9255C25.5133 10.9255 26.1761 11.4529 26.7354 12.3725C27.3004 13.3013 27.6514 14.4641 27.6514 15.4068C27.6514 17.2869 26.2389 17.9567 24.917 17.9567C23.5951 17.9567 22.1826 17.2869 22.1826 15.4068C22.1826 13.5327 23.5605 10.9255 24.917 10.9255Z" fill="#000F30"/>
<path d="M6.53894 14.5159H6.53949C6.97097 14.5159 7.3205 14.1661 7.3205 13.7346C7.3205 13.3031 6.97042 12.9534 6.53894 12.9534C6.10746 12.9534 5.75769 13.3031 5.75769 13.7346C5.75769 14.1661 6.10746 14.5159 6.53894 14.5159Z" fill="#000F30"/>
</g>
<defs>
<clipPath id="clip0_259_267">
<rect width="40" height="40" fill="white"/>
</clipPath>
</defs>
</svg>
