<svg width="40" height="40" viewBox="0 0 40 40" fill="none" xmlns="http://www.w3.org/2000/svg">
<path d="M39.1666 28.3335H36.6666V10.0001C36.6666 8.16175 35.1717 6.66675 33.3333 6.66675H6.66664C4.82828 6.66675 3.33328 8.16167 3.33328 10.0001V28.3335H0.833281C0.372734 28.3335 0 28.7061 0 29.1667V30.0001C0 31.8385 1.49492 33.3335 3.33336 33.3335H36.6667C38.5051 33.3335 40 31.8385 40 30.0001V29.1667C40 28.7061 39.6273 28.3335 39.1666 28.3335ZM5 10.0001C5 9.08136 5.74789 8.33347 6.66664 8.33347H33.3333C34.252 8.33347 34.9999 9.08136 34.9999 10.0001V28.3335H24.1666H15.8334H5V10.0001ZM36.6666 31.6667H3.33336C2.41461 31.6667 1.66672 30.9189 1.66672 30.0001H4.16672H15.4883L16.0775 30.5893C16.2338 30.7456 16.4453 30.8335 16.6667 30.8335H23.3334C23.5547 30.8335 23.7663 30.7456 23.9226 30.5893L24.5117 30.0001H35.8334H38.3334C38.3334 30.9189 37.5855 31.6667 36.6666 31.6667Z" fill="#000F30"/>
</svg>
