<svg width="115" height="37" viewBox="0 0 115 37" fill="none" xmlns="http://www.w3.org/2000/svg">
<path d="M42.4576 17.2517C43.1229 16.9878 43.6931 16.5293 44.0936 15.9361C44.494 15.3429 44.7061 14.6427 44.702 13.9269C44.7035 13.3962 44.5948 12.8709 44.3828 12.3844C44.1707 11.8978 43.86 11.4606 43.4702 11.1004C42.6579 10.2882 41.491 9.8902 39.9938 9.8902H32.6838V26.1644H40.3648C41.9269 26.1644 43.1805 25.7042 44.1281 24.8107C44.5901 24.3771 44.956 23.8513 45.2022 23.2675C45.4484 22.6836 45.5695 22.0546 45.5576 21.4211C45.5603 19.3878 44.4827 17.7579 42.4576 17.2517ZM36.2793 13.0254H39.3603C40.4433 13.0254 41.0985 13.7293 41.0985 14.5876C41.0985 15.4458 40.4379 16.212 39.2033 16.212H36.2793V13.0254ZM39.5959 23.013H36.2793V19.1875H39.6635C41.0497 19.1875 41.797 20.0457 41.797 21.1043C41.797 22.1629 41.0281 23.013 39.5959 23.013Z" fill="#181E54"/>
<path d="M49.5023 8.77744C49.0979 8.77851 48.7029 8.89932 48.3672 9.12464C48.0314 9.34996 47.7699 9.66968 47.6156 10.0435C47.4614 10.4172 47.4213 10.8283 47.5005 11.2249C47.5796 11.6214 47.7744 11.9856 48.0604 12.2715C48.3463 12.5575 48.7105 12.7523 49.107 12.8314C49.5036 12.9106 49.9147 12.8705 50.2885 12.7163C50.6622 12.562 50.982 12.3005 51.2073 11.9648C51.4326 11.629 51.5534 11.234 51.5545 10.8297C51.5581 10.5644 51.5093 10.3011 51.4111 10.0546C51.3129 9.80823 51.1671 9.58357 50.9821 9.39351C50.7971 9.20344 50.5764 9.05168 50.3327 8.94691C50.089 8.84213 49.8271 8.78638 49.5618 8.78285L49.5023 8.77744ZM47.7424 14.1056V26.1644H51.1971V14.1056H47.7424Z" fill="#181E54"/>
<path d="M61.8427 22.4228C61.2363 22.7694 60.5581 22.9714 59.8608 23.013C58.7779 23.013 58.2553 22.3307 58.2553 20.9662V16.6533H62.1269V13.8078H58.2553V9.52737H54.8305V13.8078H52.892V16.6533H54.8034V21.2965C54.8034 24.5454 56.2356 26.1698 59.119 26.1698C60.4198 26.2025 61.7023 25.8584 62.8119 25.1789L61.8427 22.4228Z" fill="#181E54"/>
<path d="M75.2444 15.3483C74.7139 14.7491 74.0588 14.2732 73.325 13.9537C72.5912 13.6343 71.7965 13.4792 70.9964 13.4991C70.2992 13.4895 69.6083 13.6334 68.9729 13.9207C68.3375 14.208 67.7731 14.6316 67.3198 15.1615V13.8078H63.9084V30.8428H67.3631V24.6374C67.826 25.1357 68.389 25.5305 69.0152 25.7959C69.6413 26.0614 70.3165 26.1916 70.9964 26.178C71.7927 26.1955 72.5832 26.0394 73.3131 25.7205C74.0429 25.4016 74.6945 24.9276 75.2227 24.3315C76.3472 23.1011 76.9542 21.4847 76.9175 19.8182C76.963 18.1673 76.3627 16.5637 75.2444 15.3483ZM70.3575 23.013C68.576 23.013 67.3198 21.6268 67.3198 19.8426C67.3089 19.4338 67.3791 19.0268 67.5264 18.6453C67.6737 18.2638 67.8952 17.9152 68.178 17.6198C68.4586 17.3314 68.7934 17.1011 69.1631 16.9422C69.5329 16.7834 69.9303 16.699 70.3327 16.694C70.7351 16.6889 71.1346 16.7633 71.5081 16.9129C71.8817 17.0625 72.2222 17.2843 72.5099 17.5657L72.564 17.6198C72.8469 17.9152 73.0683 18.2638 73.2157 18.6453C73.363 19.0268 73.4332 19.4338 73.4223 19.8426C73.4169 21.6214 72.1308 23.013 70.3575 23.013Z" fill="#181E54"/>
<path d="M81.087 8.77744C80.6824 8.77744 80.2869 8.89734 79.9504 9.12201C79.614 9.34668 79.3516 9.66603 79.1965 10.0397C79.0415 10.4134 79.0006 10.8247 79.0792 11.2216C79.1577 11.6185 79.3521 11.9832 79.6378 12.2696C79.9235 12.5561 80.2877 12.7515 80.6844 12.831C81.0811 12.9106 81.4925 12.8709 81.8666 12.7168C82.2407 12.5627 82.5607 12.3012 82.7863 11.9653C83.0118 11.6294 83.1328 11.2342 83.1338 10.8297C83.1371 10.5641 83.0879 10.3004 82.9893 10.0538C82.8906 9.80722 82.7443 9.58246 82.5588 9.3924C82.3732 9.20233 82.152 9.05067 81.9079 8.94609C81.6637 8.8415 81.4014 8.78603 81.1358 8.78285L81.087 8.77744ZM79.3272 14.1056V26.1644H82.7819V14.1056H79.3272Z" fill="#181E54"/>
<path d="M85.381 9.41638V26.1644H88.8356V9.41638H85.381Z" fill="#181E54"/>
<path d="M103.364 19.5854C103.364 17.7155 102.791 16.2408 101.644 15.1615C100.502 14.0785 99.048 13.537 97.2665 13.537C95.3713 13.537 93.8335 14.1327 92.6639 15.3429C92.081 15.9369 91.6243 16.6428 91.3214 17.4179C91.0185 18.1931 90.8756 19.0216 90.9014 19.8534C90.858 21.514 91.4652 23.1259 92.5935 24.345C93.7388 25.5552 95.3686 26.1698 97.5021 26.1698C99.5489 26.1698 101.311 25.6283 102.784 24.4994L101.431 22.1439C100.323 22.9055 99.0109 23.3125 97.6672 23.3108C95.9074 23.3108 94.8055 22.5609 94.3885 21.042H103.263C103.324 20.5587 103.357 20.0724 103.364 19.5854ZM94.3615 18.5728C94.5119 17.9207 94.8835 17.3409 95.4131 16.9317C95.9427 16.5226 96.5976 16.3094 97.2665 16.3284C98.696 16.3284 99.7032 17.1866 100.039 18.5728H94.3615Z" fill="#181E54"/>
<path d="M111.97 13.7753C110.538 13.7753 109.461 14.4115 108.689 15.6705V14.1056H105.389V26.1644H108.838V20.663C108.838 18.1992 109.961 17.0973 111.656 17.0973C112.136 17.0977 112.612 17.1754 113.067 17.3274V13.9459C112.711 13.8383 112.342 13.7809 111.97 13.7753Z" fill="#181E54"/>
<path d="M115 24.234C115.016 24.7308 114.834 25.2137 114.495 25.5766C114.155 25.9395 113.685 26.1529 113.189 26.1698H113.105C112.959 26.1705 112.814 26.1559 112.672 26.1265C112.212 26.0409 111.801 25.7858 111.521 25.4118C111.269 25.0713 111.137 24.6573 111.145 24.234C111.142 23.7933 111.293 23.3654 111.572 23.0239C111.85 22.6825 112.239 22.4488 112.672 22.3632C112.814 22.3338 112.959 22.3193 113.105 22.3199C113.607 22.3199 114.089 22.5196 114.445 22.875C114.8 23.2304 115 23.7125 115 24.2151V24.234Z" fill="#00D161"/>
<path d="M24.0526 2.24715C19.9915 -1.81397 11.9938 -0.232842 5.87509 5.88591C3.05397 8.71786 1.08298 12.075 0.3249 15.3618C0.322113 15.3912 0.316676 15.4202 0.308656 15.4485C0.0910306 16.2835 -0.0127898 17.1441 1.06443e-05 18.007V18.0747C-0.0176803 18.9408 0.0880679 19.805 0.31407 20.6413C1.0559 23.9552 3.02148 27.3557 5.88051 30.2039C9.7142 34.0376 14.2735 36.1006 18.1613 36.1006C19.2686 36.1092 20.3686 35.9213 21.4102 35.5456C22.406 35.1737 23.3107 34.593 24.0635 33.8426C27.5669 30.3392 26.8521 23.744 22.4959 18.0422C26.8413 12.3485 27.5642 5.75054 24.0526 2.24715ZM8.52565 8.53105C12.9956 4.06111 18.8977 2.38793 21.4021 4.89229C23.3975 6.87953 22.6908 11.252 19.9293 15.1967C16.2039 11.6771 11.8558 9.78187 8.1412 9.78187C7.87902 9.77867 7.61688 9.79042 7.35605 9.81707C7.72425 9.37305 8.12224 8.94799 8.52565 8.53105ZM4.87335 21.4075C4.43532 20.9601 4.11852 20.4085 3.95283 19.8047C3.81516 19.2381 3.7416 18.6577 3.73353 18.0747V18.0314C3.74147 17.4693 3.80679 16.9096 3.92846 16.3609C3.92611 16.3397 3.93192 16.3184 3.94471 16.3013C3.96095 16.2851 3.94471 16.2851 3.94471 16.277C4.11816 15.677 4.43716 15.1292 4.87335 14.6823C7.32897 12.2456 13.0308 13.778 17.4709 18.0503C13.0416 22.3199 7.3398 23.8604 4.87335 21.4075ZM21.3886 31.2002C18.8923 33.7046 12.9956 32.0449 8.51211 27.5696C8.10329 27.1526 7.69989 26.7248 7.34251 26.2808C11.2222 26.5705 15.925 24.6808 19.9157 20.8958C22.68 24.8405 23.3866 29.213 21.3913 31.2002H21.3886Z" fill="#181E54"/>
<path d="M21.4021 31.1975C18.9059 33.7045 13.0091 32.0422 8.52566 27.5668C8.11536 27.158 7.7259 26.7288 7.35876 26.2808C11.2358 26.5705 15.9413 24.678 19.9293 20.8958C22.6908 24.8405 23.3975 29.213 21.4021 31.1975Z" fill="white"/>
<path d="M17.4817 18.0476C13.0416 22.3172 7.33977 23.8604 4.88685 21.4048C4.44649 20.9603 4.12927 20.4089 3.96633 19.8047C3.82761 19.2382 3.75314 18.6579 3.74432 18.0747V18.0314C3.75226 17.4694 3.81758 16.9096 3.93926 16.3609C3.93691 16.3397 3.94272 16.3184 3.9555 16.3013C3.97175 16.2851 3.9555 16.2824 3.9555 16.2743C4.1222 15.6747 4.43794 15.127 4.87331 14.6823C7.33977 12.2348 13.0416 13.778 17.4817 18.0476Z" fill="#5D8FE8"/>
<path d="M19.9293 15.2021C16.2039 11.6825 11.8585 9.7873 8.14121 9.7873C7.87996 9.78127 7.61861 9.79212 7.35876 9.81979C7.72427 9.37848 8.11684 8.95071 8.52566 8.54189C12.9956 4.06112 18.8978 2.39607 21.4021 4.90313C23.3975 6.88225 22.6908 11.2547 19.9293 15.2021Z" fill="#00D161"/>
</svg>
