<svg width="115" height="36" viewBox="0 0 115 36" fill="none" xmlns="http://www.w3.org/2000/svg">
<path d="M42.4576 16.9967C43.1229 16.7367 43.6931 16.285 44.0936 15.7006C44.494 15.1161 44.7061 14.4262 44.702 13.7211C44.7035 13.1982 44.5948 12.6807 44.3828 12.2013C44.1707 11.722 43.86 11.2912 43.4702 10.9363C42.6579 10.1361 41.491 9.74402 39.9938 9.74402H32.6838V25.7777H40.3648C41.9269 25.7777 43.1805 25.3243 44.1281 24.444C44.5901 24.0167 44.956 23.4988 45.2022 22.9236C45.4484 22.3483 45.5695 21.7286 45.5576 21.1044C45.5603 19.1012 44.4827 17.4955 42.4576 16.9967ZM36.2793 12.8329H39.3603C40.4433 12.8329 41.0985 13.5264 41.0985 14.3719C41.0985 15.2175 40.4379 15.9724 39.2033 15.9724H36.2793V12.8329ZM39.5959 22.6729H36.2793V18.9038H39.6635C41.0497 18.9038 41.797 19.7494 41.797 20.7924C41.797 21.8353 41.0281 22.6729 39.5959 22.6729Z" fill="white"/>
<path d="M49.5023 8.64771C49.098 8.64876 48.703 8.76779 48.3672 8.98978C48.0315 9.21176 47.77 9.52676 47.6157 9.89502C47.4615 10.2633 47.4214 10.6683 47.5005 11.059C47.5797 11.4496 47.7745 11.8085 48.0604 12.0902C48.3464 12.3719 48.7106 12.5638 49.1071 12.6418C49.5036 12.7198 49.9147 12.6803 50.2885 12.5283C50.6623 12.3763 50.982 12.1187 51.2073 11.7879C51.4326 11.4571 51.5535 11.068 51.5545 10.6696C51.5581 10.4083 51.5094 10.1488 51.4112 9.90604C51.313 9.66326 51.1672 9.44193 50.9822 9.25467C50.7971 9.06741 50.5765 8.9179 50.3328 8.81467C50.0891 8.71144 49.8271 8.65652 49.5619 8.65304L49.5023 8.64771ZM47.7425 13.8971V25.7777H51.1972V13.8971H47.7425Z" fill="white"/>
<path d="M61.8428 22.0914C61.2364 22.4329 60.5582 22.6319 59.861 22.6728C58.778 22.6728 58.2555 22.0007 58.2555 20.6563V16.4071H62.1271V13.6037H58.2555V9.38657H54.8306V13.6037H52.8921V16.4071H54.8035V20.9817C54.8035 24.1826 56.2357 25.783 59.1191 25.783C60.4199 25.8153 61.7024 25.4762 62.812 24.8068L61.8428 22.0914Z" fill="white"/>
<path d="M75.2444 15.1215C74.7139 14.5311 74.0588 14.0622 73.325 13.7475C72.5912 13.4328 71.7965 13.2799 70.9964 13.2996C70.2992 13.2901 69.6083 13.4319 68.9729 13.7149C68.3375 13.998 67.7731 14.4153 67.3198 14.9374V13.6037H63.9084V30.3869H67.3631V24.2733C67.826 24.7642 68.389 25.1531 69.0152 25.4147C69.6413 25.6762 70.3165 25.8045 70.9964 25.791C71.7927 25.8083 72.5832 25.6545 73.3131 25.3403C74.0429 25.0262 74.6946 24.5592 75.2227 23.9719C76.3472 22.7597 76.9542 21.1671 76.9175 19.5253C76.963 17.8987 76.3627 16.3188 75.2444 15.1215ZM70.3575 22.6728C68.576 22.6728 67.3198 21.3071 67.3198 19.5493C67.3089 19.1465 67.3791 18.7456 67.5264 18.3697C67.6737 17.9938 67.8952 17.6504 68.178 17.3594C68.4586 17.0752 68.7934 16.8483 69.1631 16.6918C69.5329 16.5353 69.9303 16.4522 70.3327 16.4472C70.7351 16.4423 71.1346 16.5156 71.5082 16.6629C71.8817 16.8103 72.2222 17.0289 72.5099 17.3061L72.564 17.3594C72.8469 17.6504 73.0684 17.9938 73.2157 18.3697C73.363 18.7456 73.4332 19.1465 73.4223 19.5493C73.4169 21.3018 72.1308 22.6728 70.3575 22.6728Z" fill="white"/>
<path d="M81.0871 8.64771C80.6825 8.64771 80.287 8.76584 79.9505 8.98719C79.614 9.20853 79.3517 9.52316 79.1966 9.89133C79.0415 10.2595 79.0007 10.6647 79.0792 11.0557C79.1578 11.4467 79.3522 11.8061 79.6379 12.0883C79.9236 12.3705 80.2878 12.563 80.6845 12.6414C81.0812 12.7198 81.4925 12.6806 81.8666 12.5288C82.2407 12.377 82.5608 12.1194 82.7863 11.7885C83.0119 11.4575 83.1328 11.0682 83.1339 10.6696C83.1371 10.4079 83.088 10.1482 82.9893 9.90523C82.8906 9.66227 82.7443 9.44083 82.5588 9.25358C82.3733 9.06632 82.1521 8.9169 81.9079 8.81386C81.6638 8.71082 81.4014 8.65617 81.1358 8.65304L81.0871 8.64771ZM79.3273 13.8971V25.7777H82.7819V13.8971H79.3273Z" fill="white"/>
<path d="M85.3809 9.27722V25.7777H88.8355V9.27722H85.3809Z" fill="white"/>
<path d="M103.364 19.2959C103.364 17.4536 102.791 16.0008 101.644 14.9374C100.502 13.8705 99.048 13.337 97.2665 13.337C95.3713 13.337 93.8335 13.9238 92.6639 15.1161C92.081 15.7014 91.6243 16.3968 91.3214 17.1605C91.0185 17.9242 90.8756 18.7404 90.9014 19.56C90.858 21.1961 91.4652 22.7841 92.5935 23.9852C93.7388 25.1775 95.3686 25.783 97.5021 25.783C99.5489 25.783 101.311 25.2495 102.784 24.1372L101.431 21.8166C100.323 22.567 99.0109 22.9679 97.6672 22.9663C95.9074 22.9663 94.8055 22.2274 94.3885 20.731H103.263C103.324 20.2548 103.357 19.7757 103.364 19.2959ZM94.3615 18.2983C94.5119 17.6559 94.8835 17.0846 95.4131 16.6815C95.9427 16.2784 96.5976 16.0683 97.2665 16.0871C98.696 16.0871 99.7032 16.9326 100.039 18.2983H94.3615Z" fill="white"/>
<path d="M111.97 13.5717C110.538 13.5717 109.461 14.1986 108.689 15.4389V13.8971H105.389V25.7777H108.838V20.3576C108.838 17.9302 109.961 16.8446 111.656 16.8446C112.136 16.845 112.612 16.9216 113.067 17.0713V13.7398C112.711 13.6338 112.342 13.5773 111.97 13.5717Z" fill="white"/>
<path d="M115 23.8758C115.016 24.3653 114.834 24.841 114.495 25.1985C114.155 25.5561 113.685 25.7663 113.189 25.783H113.105C112.959 25.7836 112.814 25.7693 112.672 25.7403C112.212 25.6559 111.801 25.4046 111.521 25.0361C111.269 24.7008 111.137 24.2929 111.145 23.8758C111.142 23.4416 111.293 23.02 111.572 22.6836C111.85 22.3472 112.239 22.117 112.672 22.0327C112.814 22.0037 112.959 21.9894 113.105 21.99C113.607 21.99 114.089 22.1867 114.445 22.5369C114.8 22.887 115 23.3619 115 23.8572V23.8758Z" fill="#00D161"/>
<path d="M24.0523 2.21403C19.9912 -1.78706 11.9935 -0.229303 5.87479 5.799C3.05367 8.5891 1.08267 11.8967 0.324595 15.1349C0.321808 15.1638 0.316371 15.1923 0.30835 15.2202C0.0907254 16.0429 -0.013095 16.8908 -0.000294532 17.7409V17.8076C-0.0179855 18.6609 0.0877628 19.5124 0.313765 20.3363C1.0556 23.6012 3.02118 26.9514 5.8802 29.7575C9.71389 33.5345 14.2732 35.5671 18.161 35.5671C19.2683 35.5756 20.3683 35.3905 21.4099 35.0203C22.4057 34.6539 23.3104 34.0818 24.0632 33.3425C27.5666 29.8909 26.8518 23.3931 22.4956 17.7756C26.841 12.1661 27.5639 5.66563 24.0523 2.21403ZM8.52534 8.40504C12.9953 4.00118 18.8974 2.35273 21.4018 4.82007C23.3972 6.77794 22.6905 11.0858 19.929 14.9722C16.2036 11.5046 11.8555 9.63738 8.14089 9.63738C7.87872 9.63423 7.61658 9.64581 7.35574 9.67206C7.72395 9.2346 8.12194 8.81582 8.52534 8.40504ZM4.87304 21.0912C4.43502 20.6504 4.11821 20.1069 3.95253 19.5121C3.81485 18.9538 3.74129 18.3821 3.73322 17.8076V17.7649C3.74116 17.2112 3.80648 16.6598 3.92816 16.1191C3.92581 16.0983 3.93162 16.0773 3.9444 16.0605C3.96065 16.0445 3.9444 16.0445 3.9444 16.0365C4.11785 15.4454 4.43685 14.9057 4.87304 14.4654C7.32867 12.0647 13.0305 13.5745 17.4706 17.7836C13.0413 21.9901 7.3395 23.5078 4.87304 21.0912ZM21.3883 30.7391C18.892 33.2065 12.9953 31.5713 8.51181 27.1621C8.10299 26.7514 7.69958 26.3299 7.3422 25.8925C11.2219 26.1779 15.9247 24.316 19.9154 20.587C22.6797 24.4734 23.3863 28.7813 21.391 30.7391H21.3883Z" fill="white"/>
<path d="M17.4818 17.7809C13.0416 21.9874 7.33983 23.5078 4.88691 21.0885C4.44655 20.6505 4.12933 20.1072 3.96639 19.512C3.82767 18.9539 3.7532 18.3821 3.74438 17.8076V17.7649C3.75232 17.2112 3.81764 16.6597 3.93932 16.1191C3.93697 16.0982 3.94278 16.0772 3.95556 16.0604C3.97181 16.0444 3.95556 16.0417 3.95556 16.0337C4.12226 15.443 4.438 14.9034 4.87338 14.4653C7.33983 12.054 13.0416 13.5744 17.4818 17.7809Z" fill="#5D8FE8"/>
<path d="M19.9294 14.9774C16.204 11.5098 11.8586 9.64264 8.14133 9.64264C7.88009 9.6367 7.61873 9.64739 7.35889 9.67465C7.72439 9.23986 8.11696 8.81841 8.52578 8.41564C12.9957 4.0011 18.8979 2.36066 21.4022 4.83066C23.3976 6.78053 22.691 11.0884 19.9294 14.9774Z" fill="#00D161"/>
</svg>
