<svg width="217" height="144" viewBox="0 0 217 144" fill="none" xmlns="http://www.w3.org/2000/svg">
<g clip-path="url(#clip0_453_184)">
<path d="M174.313 131.305C185.272 131.305 194.157 122.423 194.157 111.465C194.157 100.508 185.272 91.6251 174.313 91.6251C163.353 91.6251 154.469 100.508 154.469 111.465C154.469 122.423 163.353 131.305 174.313 131.305Z" fill="#EFF2FF"/>
<path d="M177.714 45.2784C175.377 33.0108 158.515 30.3491 137.327 30.9977C117.165 31.6132 110.343 24.8257 110.343 24.8257C110.343 24.8257 111.909 53.6731 141.473 62.6096C169.547 71.0947 180.056 57.5675 177.714 45.2784Z" fill="#EFF2FF"/>
<path d="M168.884 73.8254C168.972 68.7243 176.602 58.9633 196.344 62.1927C210.619 64.5287 215.486 56.9393 215.486 56.9393C215.486 56.9393 215.255 77.6553 194.348 84.9684C174.499 91.9129 168.728 82.7957 168.884 73.8254Z" fill="#EFF2FF"/>
<path d="M174.965 104.853C175.075 104.848 175.182 104.818 175.279 104.767C175.377 104.716 175.462 104.644 175.528 104.556C176.857 102.81 175.49 98.8663 173.599 93.4072C171.172 86.4005 168.155 77.6815 169.982 71.1414C171.007 67.6906 172.237 64.304 173.665 60.9998C176.392 54.361 178.747 48.6282 176.236 42.9007C176.153 42.7211 176.003 42.5811 175.819 42.5109C175.634 42.4406 175.429 42.4457 175.248 42.525C175.067 42.6043 174.924 42.7516 174.85 42.935C174.777 43.1185 174.778 43.3235 174.854 43.5059C177.108 48.6484 174.973 53.8465 172.27 60.4277C170.822 63.7868 169.573 67.2286 168.53 70.735C166.57 77.7307 169.676 86.6966 172.17 93.9014C173.642 98.1502 175.164 102.542 174.324 103.645C174.237 103.759 174.185 103.896 174.173 104.04C174.162 104.183 174.191 104.327 174.259 104.454C174.326 104.581 174.428 104.686 174.553 104.757C174.679 104.828 174.822 104.861 174.965 104.854L174.965 104.853Z" fill="#EFF2FF"/>
<path d="M71.7363 72.6617L160.213 83.5203C161.704 83.7032 163.061 84.4707 163.985 85.6539C164.91 86.8371 165.326 88.3391 165.143 89.8294L158.727 142.062C158.544 143.553 157.776 144.909 156.593 145.834C155.409 146.758 153.907 147.175 152.416 146.992L63.9401 136.134C62.4495 135.951 61.0926 135.183 60.168 134C59.2434 132.817 58.8267 131.315 59.0096 129.824L65.4259 77.5913C65.609 76.101 66.3767 74.7443 67.5601 73.8198C68.7435 72.8953 70.2457 72.4787 71.7363 72.6617V72.6617Z" fill="url(#paint0_linear_453_184)"/>
<path fill-rule="evenodd" clip-rule="evenodd" d="M163.209 83.8882L68.7394 72.294C68.0438 72.2105 67.3434 72.4058 66.7913 72.8371C66.2392 73.2684 65.8802 73.9007 65.7929 74.5958L65.5183 76.8316L104.129 122.4C110.368 129.762 108.217 130.081 115.856 124.586L165.236 89.0663L165.511 86.8341C165.594 86.1387 165.399 85.4385 164.968 84.8865C164.537 84.3345 163.905 83.9756 163.209 83.8882V83.8882Z" fill="#E5FFFB"/>
<path fill-rule="evenodd" clip-rule="evenodd" d="M58.9501 130.305L58.6411 132.82C58.5578 133.516 58.7531 134.216 59.1844 134.768C59.6157 135.32 60.2479 135.679 60.943 135.766L155.411 147.36C156.107 147.444 156.807 147.248 157.359 146.817C157.911 146.386 158.27 145.754 158.358 145.058L158.667 142.543L118.623 99.2174C112.858 92.9786 114.747 93.7114 107.462 98.4894L58.9501 130.305Z" fill="#03B555"/>
<path fill-rule="evenodd" clip-rule="evenodd" d="M58.6348 133.393C58.6939 133.991 58.9546 134.552 59.3741 134.983C59.7936 135.414 60.3471 135.69 60.9439 135.766L155.412 147.36C156.009 147.431 156.613 147.297 157.125 146.98C157.636 146.664 158.025 146.183 158.227 145.616L117.796 101.868C112.585 96.2313 114.294 96.8932 107.71 101.212L58.6348 133.393Z" fill="url(#paint1_linear_453_184)"/>
<path fill-rule="evenodd" clip-rule="evenodd" d="M129.634 114.678L117.796 101.869C112.585 96.2323 114.293 96.8941 107.709 101.213L93.8683 110.288L104.13 122.399C110.369 129.761 108.218 130.08 115.857 124.585L129.634 114.678Z" fill="#7CEFC0"/>
<path fill-rule="evenodd" clip-rule="evenodd" d="M163.21 83.8883L68.7394 72.294C68.3259 72.2439 67.9063 72.2922 67.515 72.4349C67.1236 72.5776 66.7715 72.8107 66.4873 73.1152L105.503 119.162C110.79 125.401 108.968 125.671 115.443 121.014L165.196 85.2297C164.994 84.8654 164.709 84.554 164.364 84.3209C164.018 84.0878 163.623 83.9396 163.21 83.8883V83.8883Z" fill="url(#paint2_linear_453_184)"/>
<path fill-rule="evenodd" clip-rule="evenodd" d="M144.487 92.2505L139.856 95.5827L125.083 106.206L123.11 107.624L110.572 116.643C108.157 118.38 106.897 119.43 105.991 119.744C110.683 125.414 109.176 125.523 115.443 121.015L127.485 112.355L129.456 110.937L141.051 102.597L141.957 101.946L156.928 91.1786L159.135 89.5901L165.196 85.231C164.994 84.8667 164.708 84.5553 164.363 84.3222C164.018 84.0891 163.622 83.9408 163.209 83.8895L157.146 83.1454L155.459 84.3594L144.487 92.2505Z" fill="#7CEFC0"/>
</g>
<defs>
<linearGradient id="paint0_linear_453_184" x1="115.975" y1="78.091" x2="108.185" y2="141.564" gradientUnits="userSpaceOnUse">
<stop stop-color="#00D161"/>
<stop offset="1" stop-color="#7CFFB9"/>
</linearGradient>
<linearGradient id="paint1_linear_453_184" x1="113.55" y1="97.8315" x2="108.183" y2="141.563" gradientUnits="userSpaceOnUse">
<stop stop-color="#00D161"/>
<stop offset="1" stop-color="#7CFFB9"/>
</linearGradient>
<linearGradient id="paint2_linear_453_184" x1="115.974" y1="78.0911" x2="110.313" y2="124.22" gradientUnits="userSpaceOnUse">
<stop stop-color="#00D161"/>
<stop offset="1" stop-color="#7CFFB9"/>
</linearGradient>
<clipPath id="clip0_453_184">
<rect width="217" height="144" fill="white"/>
</clipPath>
</defs>
</svg>
