<svg width="40" height="40" viewBox="0 0 40 40" fill="none" xmlns="http://www.w3.org/2000/svg">
<g clip-path="url(#clip0_247_4)">
<path d="M29.7057 10.2943C27.634 4.30828 21.9648 0 15.3125 0C6.8907 0 0 6.89172 0 15.3125C0 21.9648 4.30828 27.634 10.2943 29.7057C12.366 35.6917 18.0352 40 24.6875 40C33.1093 40 40 33.1083 40 24.6875C40 18.0352 35.6917 12.366 29.7057 10.2943ZM2.34375 15.3125C2.34375 8.16148 8.16148 2.34375 15.3125 2.34375C20.3882 2.34375 24.7875 5.31078 26.8885 9.61117C26.1695 9.50773 25.4348 9.45312 24.6875 9.45312C16.2659 9.45312 9.45312 16.3121 9.45312 24.6875C9.45312 25.4348 9.50773 26.1695 9.61117 26.8885C5.31078 24.7875 2.34375 20.3882 2.34375 15.3125ZM23.5568 25.2141L14.7859 16.4432C15.2873 15.8421 15.8421 15.2873 16.4432 14.7859L25.2141 23.5568C24.7127 24.1579 24.1579 24.7127 23.5568 25.2141ZM19.2884 27.5748L12.4252 20.7116C12.6871 19.9056 13.0264 19.1343 13.4344 18.4062L21.5938 26.5656C20.8658 26.9736 20.0945 27.3129 19.2884 27.5748ZM11.8559 23.457L16.5431 28.1441C15.0656 28.2847 13.5918 28.1716 12.1784 27.8216C11.8286 26.4094 11.7152 24.9356 11.8559 23.457ZM26.5656 21.5938L18.4062 13.4344C19.1343 13.0264 19.9055 12.6871 20.7116 12.4252L27.5748 19.2884C27.3129 20.0944 26.9736 20.8657 26.5656 21.5938ZM28.1441 16.543L23.4569 11.8559C24.9345 11.7153 26.4082 11.8284 27.8216 12.1784C28.1714 13.5906 28.2848 15.0644 28.1441 16.543ZM24.6875 37.6562C19.6118 37.6562 15.2125 34.6892 13.1115 30.3888C23.2226 31.8434 31.8374 23.1813 30.3889 13.1114C34.6892 15.2125 37.6562 19.6118 37.6562 24.6875C37.6562 31.8385 31.8385 37.6562 24.6875 37.6562Z" fill="#000F30"/>
</g>
<defs>
<clipPath id="clip0_247_4">
<rect width="40" height="40" fill="white"/>
</clipPath>
</defs>
</svg>
