<svg width="80" height="80" viewBox="0 0 80 80" fill="none" xmlns="http://www.w3.org/2000/svg">
<rect width="80" height="80" fill="#F5FEF9"/>
<g clip-path="url(#clip0_477_3)">
<path d="M30.636 40.7069L32.464 42.5359L33.88 41.1199L32.05 39.2929L33.464 37.8789L35.293 39.7069L36.707 38.2929L34.88 36.4639L36.294 35.0499L38.12 36.8799L39.535 35.4649L37.706 33.6369L40.535 30.8089C40.7225 30.6215 40.9768 30.5162 41.242 30.5162C41.5071 30.5162 41.7614 30.6215 41.949 30.8089L46.191 35.0509C46.3784 35.2385 46.4837 35.4928 46.4837 35.7579C46.4837 36.0231 46.3784 36.2774 46.191 36.4649L33.464 49.1919C33.2764 49.3794 33.0221 49.4847 32.757 49.4847C32.4918 49.4847 32.2375 49.3794 32.05 49.1919L27.808 44.9499C27.6205 44.7624 27.5152 44.5081 27.5152 44.2429C27.5152 43.9778 27.6205 43.7235 27.808 43.5359L30.636 40.7069ZM39.121 46.3629L43.364 42.1209L46 44.7569V48.9999H41.758L39.121 46.3629ZM30.636 37.8779L27.807 35.0499C27.714 34.9571 27.6402 34.8468 27.5899 34.7254C27.5396 34.604 27.5137 34.4739 27.5137 34.3424C27.5137 34.211 27.5396 34.0809 27.5899 33.9595C27.6402 33.8381 27.714 33.7278 27.807 33.6349L30.636 30.8069C30.8235 30.6195 31.0778 30.5142 31.343 30.5142C31.6081 30.5142 31.8624 30.6195 32.05 30.8069L34.88 33.6349L30.636 37.8779Z" fill="#00D161"/>
</g>
<defs>
<clipPath id="clip0_477_3">
<rect width="24" height="24" fill="white" transform="translate(25 28)"/>
</clipPath>
</defs>
</svg>
