<svg width="80" height="80" viewBox="0 0 80 80" fill="none" xmlns="http://www.w3.org/2000/svg">
<rect width="80" height="80" fill="#EDFFF5"/>
<rect width="80" height="80" fill="#F5FEF9"/>
<g clip-path="url(#clip0_477_2)">
<path d="M50 48V50H30V48H31V41.242C30.3844 40.8311 29.8797 40.2745 29.5308 39.6218C29.1819 38.969 28.9996 38.2402 29 37.5C29 36.673 29.224 35.876 29.633 35.197L32.345 30.5C32.4328 30.348 32.559 30.2217 32.711 30.134C32.863 30.0462 33.0355 30 33.211 30H46.79C46.9655 30 47.138 30.0462 47.29 30.134C47.442 30.2217 47.5682 30.348 47.656 30.5L50.358 35.182C50.9546 36.1729 51.1463 37.3555 50.8934 38.4841C50.6405 39.6127 49.9624 40.6005 49 41.242V48H50ZM33.789 32L31.356 36.213C31.1196 36.7971 31.1125 37.449 31.3361 38.0382C31.5598 38.6273 31.9977 39.1103 32.5622 39.3904C33.1267 39.6705 33.7761 39.7271 34.3806 39.5488C34.985 39.3706 35.4998 38.9706 35.822 38.429C36.157 37.592 37.342 37.592 37.678 38.429C37.8633 38.8934 38.1836 39.2916 38.5975 39.5721C39.0115 39.8526 39.5 40.0025 40 40.0025C40.5 40.0025 40.9885 39.8526 41.4025 39.5721C41.8164 39.2916 42.1367 38.8934 42.322 38.429C42.657 37.592 43.842 37.592 44.178 38.429C44.3078 38.7484 44.5022 39.0376 44.7491 39.2783C44.996 39.519 45.2901 39.706 45.6127 39.8275C45.9354 39.9491 46.2797 40.0026 46.6241 39.9847C46.9684 39.9668 47.3053 39.8778 47.6136 39.7234C47.9219 39.569 48.1949 39.3525 48.4155 39.0875C48.6361 38.8225 48.7995 38.5148 48.8955 38.1836C48.9914 37.8524 49.0178 37.5049 48.973 37.1631C48.9281 36.8212 48.8131 36.4923 48.635 36.197L46.21 32H33.79H33.789Z" fill="#00D161"/>
</g>
<defs>
<clipPath id="clip0_477_2">
<rect width="24" height="24" fill="white" transform="translate(28 28)"/>
</clipPath>
</defs>
</svg>
