<svg width="40" height="40" viewBox="0 0 40 40" fill="none" xmlns="http://www.w3.org/2000/svg">
<g clip-path="url(#clip0_247_51)">
<path fill-rule="evenodd" clip-rule="evenodd" d="M29.5328 15.4166C30.8749 17.6334 31.6473 20.2335 31.6473 23.0139C31.6473 27.0706 30.0031 30.7434 27.3447 33.4018C24.6863 36.0602 21.0135 37.7044 16.9568 37.7044C12.9001 37.7044 9.2273 36.0602 6.56891 33.4018C3.91053 30.7434 2.26624 27.0706 2.26624 23.0139C2.26624 18.9572 3.91053 15.2844 6.56891 12.626C9.2273 9.96765 12.9001 8.32336 16.9568 8.32336C19.7479 8.32336 22.3572 9.10156 24.5792 10.4529L26.2842 8.75732C23.6044 7.00073 20.3998 5.979 16.9568 5.979C12.2528 5.979 7.99409 7.88574 4.9115 10.9686C1.82862 14.0512 -0.0781212 18.3099 -0.0781212 23.0139C-0.0781212 27.7179 1.82862 31.9766 4.9115 35.0592C7.99409 38.1421 12.2528 40.0488 16.9568 40.0488C21.6608 40.0488 25.9195 38.1421 29.0021 35.0592C32.085 31.9766 33.9917 27.7179 33.9917 23.0139C33.9917 19.5859 32.9788 16.3946 31.2366 13.7225L29.5328 15.4166Z" fill="black"/>
<path fill-rule="evenodd" clip-rule="evenodd" d="M22.8864 12.137C21.1252 11.1748 19.1049 10.6279 16.9568 10.6279C13.5364 10.6279 10.4401 12.0143 8.19857 14.2559C5.95705 16.4974 4.57033 19.594 4.57033 23.0141C4.57033 26.4345 5.95705 29.5308 8.19857 31.7723C10.4401 34.0139 13.5364 35.4006 16.9568 35.4006C20.3769 35.4006 23.4735 34.0139 25.7151 31.7723C27.9566 29.5308 29.343 26.4345 29.343 23.0141C29.343 20.8718 28.7992 18.8564 27.8418 17.0989L26.0922 18.8387C26.6742 20.1104 26.9989 21.5242 26.9989 23.0141C26.9989 25.7872 25.875 28.2979 24.0576 30.1149C22.2406 31.9323 19.7299 33.0562 16.9568 33.0562C14.1837 33.0562 11.673 31.9323 9.85598 30.1149C8.03866 28.2979 6.91469 25.7872 6.91469 23.0141C6.91469 20.241 8.03866 17.7303 9.85598 15.9133C11.673 14.0959 14.1837 12.972 16.9568 12.972C18.4473 12.972 19.8621 13.297 21.1341 13.8796L22.8864 12.137Z" fill="black"/>
<path fill-rule="evenodd" clip-rule="evenodd" d="M16.9568 17.6231C17.0898 17.6225 17.2232 17.6271 17.356 17.6368L19.3488 15.655C18.5953 15.4103 17.7914 15.2778 16.9568 15.2778C14.8206 15.2778 12.8867 16.1439 11.4865 17.5441C10.0867 18.9439 9.22058 20.8778 9.22058 23.014C9.22058 25.15 10.0867 27.0842 11.4868 28.484C12.8867 29.8842 14.8209 30.7499 16.9568 30.7499C19.093 30.7499 21.0269 29.8842 22.4271 28.484C23.8269 27.0842 24.6927 25.1503 24.6927 23.014C24.6927 22.1745 24.559 21.3661 24.3115 20.6093L22.3312 22.5789C22.3425 22.7226 22.3486 22.8676 22.3486 23.014C22.3486 24.503 21.745 25.851 20.7694 26.8266C19.7937 27.8023 18.4457 28.4059 16.9568 28.4059C15.4675 28.4059 14.1196 27.8023 13.1439 26.8266C12.1686 25.851 11.5649 24.503 11.5649 23.014C11.5649 21.5251 12.1686 20.1771 13.1442 19.2015C14.1394 18.206 15.5487 17.6292 16.9568 17.6231Z" fill="black"/>
<path fill-rule="evenodd" clip-rule="evenodd" d="M39.5786 4.86979C39.3768 4.66807 39.1199 4.55516 38.8562 4.53135L36.091 4.07878L35.4709 1.04899C35.4318 0.819806 35.3241 0.599774 35.1477 0.422467C34.6924 -0.0352971 33.9523 -0.037128 33.4949 0.417889L30.0366 3.85966C29.7925 4.10258 29.678 4.42668 29.6936 4.74559L29.7107 8.64635L16.0291 22.2529C15.5716 22.7082 15.5695 23.448 16.0245 23.9057C16.4798 24.3635 17.2199 24.3656 17.6773 23.9103L31.3632 10.2995L35.2097 10.3038C35.5429 10.3331 35.8862 10.2201 36.1414 9.96531L39.5786 6.5272C40.0363 6.06944 40.0363 5.32756 39.5786 4.86979Z" fill="black"/>
</g>
<defs>
<clipPath id="clip0_247_51">
<rect width="40" height="40" fill="white"/>
</clipPath>
</defs>
</svg>
