<svg width="40" height="40" viewBox="0 0 40 40" fill="none" xmlns="http://www.w3.org/2000/svg">
<g clip-path="url(#clip0_259_275)">
<path d="M25.9094 15.5354C27.3885 13.5631 28.2031 10.9591 28.2031 8.20312C28.2031 2.98992 25.2132 0 20 0C14.7868 0 11.7969 2.98992 11.7969 8.20312C11.7969 10.9591 12.6115 13.5631 14.0906 15.5354C15.6454 17.6084 17.7441 18.75 20 18.75C22.2559 18.75 24.3546 17.6084 25.9094 15.5354ZM15.7987 3.62875C16.7756 2.77609 18.1891 2.34375 20 2.34375C21.8109 2.34375 23.2244 2.77609 24.2013 3.62875C24.3177 3.73039 24.4267 3.84 24.531 3.95453C22.6816 7.26883 19.1374 9.375 15.3125 9.375H14.2013C14.1618 8.99023 14.1406 8.59914 14.1406 8.20312C14.1406 6.12813 14.6985 4.58906 15.7987 3.62875ZM20 16.4062C18.4997 16.4062 17.067 15.5976 15.9656 14.1291C15.4358 13.4227 15.0141 12.607 14.7095 11.7188H15.3125C17.8029 11.7188 20.2201 11.007 22.3028 9.66047C23.6296 8.80266 24.7785 7.71508 25.7035 6.45617C25.8068 6.98805 25.8594 7.57031 25.8594 8.20312C25.8594 10.4554 25.2113 12.56 24.0344 14.1291C22.933 15.5976 21.5003 16.4062 20 16.4062Z" fill="#000F30"/>
<path d="M32.7727 23.4375C32.2284 20.7662 29.8609 18.75 27.0312 18.75H12.9687C10.1391 18.75 7.77171 20.7662 7.22726 23.4375H1.97351L7.43367 40H32.5663L38.0265 23.4375H32.7727ZM12.9687 21.0938H27.0312C28.559 21.0938 29.8616 22.0736 30.3453 23.4375H9.65468C10.1384 22.0736 11.441 21.0938 12.9687 21.0938ZM30.8712 37.6562H9.12882L5.21398 25.7812H34.7859L30.8712 37.6562Z" fill="#000F30"/>
<path d="M18.8281 30.5469H21.1719V32.8906H18.8281V30.5469Z" fill="#000F30"/>
</g>
<defs>
<clipPath id="clip0_259_275">
<rect width="40" height="40" fill="white"/>
</clipPath>
</defs>
</svg>
